<svg xmlns="http://www.w3.org/2000/svg" width="500" height="500" viewBox="0 0 500 500" version="1.1"><path d="M 137 151.500 C 137 182.575, 137.290 208, 137.643 208 C 137.997 208, 144.410 204.424, 151.893 200.054 C 159.377 195.684, 181.025 183.152, 200 172.205 C 218.975 161.258, 234.452 151.897, 234.394 151.401 C 234.336 150.905, 230.286 148.220, 225.394 145.434 C 220.502 142.647, 208.850 135.944, 199.500 130.537 C 190.150 125.130, 176.875 117.466, 170 113.507 C 163.125 109.548, 153.097 103.764, 147.715 100.654 C 142.333 97.544, 137.720 95, 137.465 95 C 137.209 95, 137 120.425, 137 151.500 M 355.500 100.984 C 350 104.185, 328.504 116.636, 307.732 128.652 C 286.959 140.668, 269.859 150.907, 269.732 151.405 C 269.546 152.130, 361.217 205.886, 365.750 207.711 C 366.741 208.110, 367 196.494, 367 151.607 C 367 120.473, 366.663 95.037, 366.250 95.082 C 365.837 95.127, 361 97.783, 355.500 100.984 M 235 170.663 C 225.925 175.942, 212.875 183.512, 206 187.485 C 199.125 191.459, 182.813 200.891, 169.750 208.446 C 156.688 216.001, 146.011 222.479, 146.024 222.841 C 146.052 223.596, 249.454 283.333, 251.577 283.821 C 252.722 284.084, 355.933 225.374, 358.193 223.175 C 358.756 222.627, 253.204 160.924, 251.890 161.032 C 251.675 161.050, 244.075 165.384, 235 170.663 M 137 293.985 L 137 351.040 141.798 348.270 C 144.437 346.747, 166.485 334.025, 190.794 320 C 215.102 305.975, 234.993 294.260, 234.996 293.966 C 234.998 293.672, 233.762 292.726, 232.250 291.864 C 228.655 289.816, 203.300 275.148, 168.948 255.245 C 153.794 246.466, 140.407 238.753, 139.198 238.106 L 137 236.930 137 293.985 M 356 243.196 C 340.376 252.263, 325.480 260.875, 295.750 278.028 C 281.038 286.517, 269.003 293.695, 269.008 293.981 C 269.012 294.266, 290.949 307.151, 317.758 322.614 L 366.500 350.728 366.765 322.364 C 366.911 306.764, 366.911 281.198, 366.765 265.551 L 366.500 237.102 356 243.196 M 220.500 321.499 C 204 331.089, 180.493 344.687, 168.263 351.717 C 156.032 358.748, 146.020 364.788, 146.013 365.140 C 146.006 365.492, 169.878 379.565, 199.061 396.413 L 252.123 427.047 305.531 396.274 C 349.888 370.715, 358.675 365.300, 357.376 364.321 C 353.450 361.362, 253.062 304.004, 251.858 304.032 C 251.111 304.050, 237 311.910, 220.500 321.499" stroke="none" fill="#dadadb" fill-rule="evenodd"/><path d="M 223.500 20.165 C 126.970 31.061, 45.661 103.903, 24.555 198.392 C 17.039 232.043, 17.058 268.043, 24.609 301.848 C 29.945 325.732, 42.300 354.883, 56.039 376 C 91.898 431.119, 149.874 468.579, 215 478.711 C 231.152 481.224, 268.848 481.224, 285 478.711 C 325.050 472.481, 362.980 455.752, 395 430.198 C 441.960 392.721, 473.381 335.235, 479.945 274.789 C 481.299 262.330, 481.299 237.670, 479.945 225.211 C 475.241 181.893, 457.659 139.339, 430.416 105.335 C 392.178 57.608, 335.723 26.672, 274.789 20.055 C 263.377 18.815, 234.913 18.876, 223.500 20.165 M 137 151.500 C 137 182.575, 137.290 208, 137.643 208 C 137.997 208, 144.410 204.424, 151.893 200.054 C 159.377 195.684, 181.025 183.152, 200 172.205 C 218.975 161.258, 234.452 151.897, 234.394 151.401 C 234.336 150.905, 230.286 148.220, 225.394 145.434 C 220.502 142.647, 208.850 135.944, 199.500 130.537 C 190.150 125.130, 176.875 117.466, 170 113.507 C 163.125 109.548, 153.097 103.764, 147.715 100.654 C 142.333 97.544, 137.720 95, 137.465 95 C 137.209 95, 137 120.425, 137 151.500 M 355.500 100.984 C 350 104.185, 328.504 116.636, 307.732 128.652 C 286.959 140.668, 269.859 150.907, 269.732 151.405 C 269.546 152.130, 361.217 205.886, 365.750 207.711 C 366.741 208.110, 367 196.494, 367 151.607 C 367 120.473, 366.663 95.037, 366.250 95.082 C 365.837 95.127, 361 97.783, 355.500 100.984 M 235 170.663 C 225.925 175.942, 212.875 183.512, 206 187.485 C 199.125 191.459, 182.813 200.891, 169.750 208.446 C 156.688 216.001, 146.011 222.479, 146.024 222.841 C 146.052 223.596, 249.454 283.333, 251.577 283.821 C 252.722 284.084, 355.933 225.374, 358.193 223.175 C 358.756 222.627, 253.204 160.924, 251.890 161.032 C 251.675 161.050, 244.075 165.384, 235 170.663 M 137 293.985 L 137 351.040 141.798 348.270 C 144.437 346.747, 166.485 334.025, 190.794 320 C 215.102 305.975, 234.993 294.260, 234.996 293.966 C 234.998 293.672, 233.762 292.726, 232.250 291.864 C 228.655 289.816, 203.300 275.148, 168.948 255.245 C 153.794 246.466, 140.407 238.753, 139.198 238.106 L 137 236.930 137 293.985 M 356 243.196 C 340.376 252.263, 325.480 260.875, 295.750 278.028 C 281.038 286.517, 269.003 293.695, 269.008 293.981 C 269.012 294.266, 290.949 307.151, 317.758 322.614 L 366.500 350.728 366.765 322.364 C 366.911 306.764, 366.911 281.198, 366.765 265.551 L 366.500 237.102 356 243.196 M 220.500 321.499 C 204 331.089, 180.493 344.687, 168.263 351.717 C 156.032 358.748, 146.020 364.788, 146.013 365.140 C 146.006 365.492, 169.878 379.565, 199.061 396.413 L 252.123 427.047 305.531 396.274 C 349.888 370.715, 358.675 365.300, 357.376 364.321 C 353.450 361.362, 253.062 304.004, 251.858 304.032 C 251.111 304.050, 237 311.910, 220.500 321.499" stroke="none" fill="#1b1a67" fill-rule="evenodd"/></svg>