<svg xmlns="http://www.w3.org/2000/svg" width="317" height="317" viewBox="0 0 317 317" version="1.1"><path d="M 81 90.962 L 81 130.040 85.806 127.270 C 88.450 125.747, 103.524 117.075, 119.305 108 C 135.086 98.925, 147.998 91.269, 147.999 90.988 C 148 90.569, 111.668 69.311, 86.821 55.192 L 81 51.884 81 90.962 M 205 71.118 C 187.125 81.516, 172.383 90.370, 172.239 90.794 C 172.096 91.218, 185.596 99.407, 202.239 108.993 C 218.883 118.578, 233.963 127.271, 235.750 128.309 L 239 130.198 239 91.099 C 239 69.594, 238.662 52.048, 238.250 52.106 C 237.838 52.164, 222.875 60.719, 205 71.118 M 147 104.794 C 140.675 108.515, 124.589 117.831, 111.252 125.496 C 92.680 136.171, 87.297 139.697, 88.252 140.561 C 89.144 141.367, 151.042 177.243, 159.271 181.724 C 160.036 182.141, 229.349 142.792, 231.754 140.576 C 232.726 139.680, 224.910 134.758, 197.029 118.710 C 177.240 107.319, 160.475 98.007, 159.774 98.015 C 159.073 98.023, 153.325 101.074, 147 104.794 M 81 188.500 C 81 209.675, 81.338 226.994, 81.750 226.987 C 83.523 226.956, 147.264 189.397, 147.071 188.496 C 146.897 187.680, 82.592 150, 81.373 150 C 81.168 150, 81 167.325, 81 188.500 M 205.036 168.930 C 187.181 179.300, 172.460 188.171, 172.324 188.642 C 172.187 189.114, 185.221 197.041, 201.288 206.258 C 217.355 215.476, 232.412 224.164, 234.750 225.565 L 239 228.113 239 189.057 C 239 167.576, 238.662 150.017, 238.250 150.037 C 237.838 150.058, 222.891 158.559, 205.036 168.930 M 123.731 215.912 C 104.058 227.348, 87.730 236.936, 87.448 237.218 C 87.166 237.501, 103.365 247.251, 123.446 258.887 L 159.956 280.042 195.728 259.414 C 215.403 248.068, 231.868 238.443, 232.318 238.025 C 232.923 237.462, 160.669 194.726, 159.676 195.059 C 159.579 195.092, 143.404 204.476, 123.731 215.912" stroke="none" fill="#dadada" fill-rule="evenodd"/><path d="M 130.659 2.070 C 77.465 11.434, 30.530 49.668, 11.042 99.512 C 2.817 120.548, 0.043 135.411, 0.017 158.575 C -0.018 191.460, 8.382 219.391, 26.485 246.573 C 50.992 283.374, 91.125 309.058, 134.243 315.536 C 146.737 317.413, 170.263 317.413, 182.757 315.536 C 216.808 310.420, 249.123 293.432, 273.427 267.871 C 294.586 245.618, 309.703 216.228, 314.509 188 C 315.398 182.775, 316.548 177.719, 317.063 176.764 C 318.192 174.671, 318.336 138.674, 317.213 139.368 C 316.780 139.636, 315.682 135.496, 314.773 130.169 C 303.794 65.833, 250.664 13.140, 185.549 2.008 C 169.923 -0.663, 146.031 -0.636, 130.659 2.070 M 81 90.962 L 81 130.040 85.806 127.270 C 88.450 125.747, 103.524 117.075, 119.305 108 C 135.086 98.925, 147.998 91.269, 147.999 90.988 C 148 90.569, 111.668 69.311, 86.821 55.192 L 81 51.884 81 90.962 M 205 71.118 C 187.125 81.516, 172.383 90.370, 172.239 90.794 C 172.096 91.218, 185.596 99.407, 202.239 108.993 C 218.883 118.578, 233.963 127.271, 235.750 128.309 L 239 130.198 239 91.099 C 239 69.594, 238.662 52.048, 238.250 52.106 C 237.838 52.164, 222.875 60.719, 205 71.118 M 147 104.794 C 140.675 108.515, 124.589 117.831, 111.252 125.496 C 92.680 136.171, 87.297 139.697, 88.252 140.561 C 89.144 141.367, 151.042 177.243, 159.271 181.724 C 160.036 182.141, 229.349 142.792, 231.754 140.576 C 232.726 139.680, 224.910 134.758, 197.029 118.710 C 177.240 107.319, 160.475 98.007, 159.774 98.015 C 159.073 98.023, 153.325 101.074, 147 104.794 M 0.417 158.500 C 0.418 168.950, 0.566 173.089, 0.746 167.698 C 0.926 162.307, 0.925 153.757, 0.744 148.698 C 0.563 143.639, 0.416 148.050, 0.417 158.500 M 81 188.500 C 81 209.675, 81.338 226.994, 81.750 226.987 C 83.523 226.956, 147.264 189.397, 147.071 188.496 C 146.897 187.680, 82.592 150, 81.373 150 C 81.168 150, 81 167.325, 81 188.500 M 205.036 168.930 C 187.181 179.300, 172.460 188.171, 172.324 188.642 C 172.187 189.114, 185.221 197.041, 201.288 206.258 C 217.355 215.476, 232.412 224.164, 234.750 225.565 L 239 228.113 239 189.057 C 239 167.576, 238.662 150.017, 238.250 150.037 C 237.838 150.058, 222.891 158.559, 205.036 168.930 M 123.731 215.912 C 104.058 227.348, 87.730 236.936, 87.448 237.218 C 87.166 237.501, 103.365 247.251, 123.446 258.887 L 159.956 280.042 195.728 259.414 C 215.403 248.068, 231.868 238.443, 232.318 238.025 C 232.923 237.462, 160.669 194.726, 159.676 195.059 C 159.579 195.092, 143.404 204.476, 123.731 215.912" stroke="none" fill="#2a2a2a" fill-rule="evenodd"/></svg>